<svg width="24" height="24" viewBox="0 0 24 24" fill="none" xmlns="http://www.w3.org/2000/svg">
<path fill-rule="evenodd" clip-rule="evenodd" d="M11.8383 1.5L20.6765 6.69887V9.48453V14.3981V17.097L11.8383 22.2959L3 17.097V6.69887L11.8383 1.5ZM20.6765 14.3981V9.48453L18.3943 13.0786L20.6765 14.3981ZM18.3943 13.5137L20.0926 14.5029L11.8382 19.3362L5.72533 15.7405L7.422 14.7354L11.8383 17.3332L18.3943 13.5137ZM7.6037 14.3886L11.8383 16.8794L18.3943 13.0786L20.6765 9.48453L11.8387 14.6796L9.4541 13.2895V10.5566L13.7167 8.02137L11.8383 6.91643L7.6037 9.4073V14.3886ZM12.0309 6.57603L14.1002 7.79323L15.7934 6.78617L12.0309 4.573V6.57603ZM11.6456 4.573L5.5154 8.1789V15.4103L7.21837 14.4015V9.1802L11.6456 6.57603V4.573ZM5.3094 7.84633L11.8382 4.0059L18.3538 7.8385L20.0982 6.8124L11.8383 1.95375L3.58527 6.80833L5.3094 7.84633ZM3.38533 7.1444V16.8699L11.6456 21.7288V19.6767L5.13007 15.8441V8.1948L3.38533 7.1444ZM12.0309 19.6766V21.7288L20.2912 16.8622V14.8399L12.0309 19.6766ZM20.2912 9.2539V7.1526L12.0309 12.0115V14.1128L20.2912 9.2539ZM11.6456 14.1143V12.0142L9.8394 11.0018V13.0614L11.6456 14.1143ZM10.0378 10.6645L11.836 11.6724L18.3538 7.8385L16.5648 6.78617L10.0378 10.6645Z" fill="#911840"/>
<path d="M12.0296 19.6765V21.7287L20.2899 16.8621V14.8397L12.0296 19.6765Z" fill="#DB1A5A"/>
<path d="M3.38489 7.14441V16.8699L11.6452 21.7288V19.6767L5.12962 15.8441V8.19481L3.38489 7.14441Z" fill="#DB1A5A"/>
<path d="M20.2899 7.15253V9.25383L12.0296 14.1127V12.0114L20.2899 7.15253Z" fill="#DB1A5A"/>
<path d="M20.0976 6.81247L18.3532 7.83853L11.8354 11.6725L10.0372 10.6645L16.5642 6.78623L11.8377 4.00597L5.30882 7.84637L3.58469 6.8084L11.8377 1.9538L20.0976 6.81247Z" fill="#DB1A5A"/>
<path d="M11.645 14.1144V12.0143L9.83881 11.0019V13.0615L11.645 14.1144Z" fill="#DB1A5A"/>
<path d="M20.0926 14.5029L18.3943 13.5137L11.8383 17.3332L7.42201 14.7355L5.72534 15.7405L11.8383 19.3362L20.0926 14.5029Z" fill="#DB1A5A"/>
<path d="M12.0296 6.57597L14.0989 7.79317L15.7921 6.7861L12.0296 4.57294V6.57597Z" fill="#DB1A5A"/>
<path d="M11.6448 4.57294L5.51459 8.17887V15.4102L7.21755 14.4015V9.18017L11.6448 6.57597V4.57294Z" fill="#DB1A5A"/>
</svg>
