<svg width="36" height="36" viewBox="0 0 36 36" fill="none" xmlns="http://www.w3.org/2000/svg">
<rect width="36" height="36" rx="6" fill="white"/>
<path fill-rule="evenodd" clip-rule="evenodd" d="M17.7574 2.25L31.0148 10.0483V14.2268V21.5972V25.6455L17.7574 33.4439L4.5 25.6455V10.0483L17.7574 2.25ZM31.0148 21.5972V14.2268L27.5915 19.618L31.0148 21.5972ZM27.5915 20.2705L30.1389 21.7544L17.7574 29.0044L8.588 23.6107L11.133 22.1031L17.7574 25.9998L27.5915 20.2705ZM11.4056 21.5829L17.7574 25.3192L27.5915 19.618L31.0148 14.2268L17.7581 22.0194L14.1812 19.9343V15.835L20.575 12.0321L17.7574 10.3747L11.4056 14.111V21.5829ZM18.0464 9.86405L21.1503 11.6898L23.6901 10.1792L18.0464 6.8595V9.86405ZM17.4684 6.8595L8.2731 12.2683V23.1154L10.8276 21.6022V13.7703L17.4684 9.86405V6.8595ZM7.9641 11.7695L17.7574 6.00885L27.5307 11.7577L30.1473 10.2186L17.7574 2.93062L5.3779 10.2125L7.9641 11.7695ZM5.078 10.7166V25.3049L17.4684 32.5933V29.515L7.6951 23.7661V12.2922L5.078 10.7166ZM18.0464 29.5149V32.5933L30.4368 25.2934V22.2598L18.0464 29.5149ZM30.4368 13.8808V10.7289L18.0464 18.0173V21.1692L30.4368 13.8808ZM17.4684 21.1715V18.0213L14.7591 16.5027V19.5921L17.4684 21.1715ZM15.0567 15.9967L17.754 17.5086L27.5307 11.7577L24.8472 10.1792L15.0567 15.9967Z" fill="#911840"/>
<path d="M18.0444 29.5147V32.5929L30.4348 25.2931V22.2595L18.0444 29.5147Z" fill="#DB1A5A"/>
<path d="M5.07733 10.7166V25.3049L17.4677 32.5932V29.515L7.69443 23.7661V12.2922L5.07733 10.7166Z" fill="#DB1A5A"/>
<path d="M30.4348 10.7288V13.8807L18.0444 21.169V18.0171L30.4348 10.7288Z" fill="#DB1A5A"/>
<path d="M30.1464 10.2187L27.5298 11.7578L17.7531 17.5087L15.0558 15.9968L24.8463 10.1793L17.7565 6.00892L7.96328 11.7695L5.37708 10.2126L17.7565 2.93066L30.1464 10.2187Z" fill="#DB1A5A"/>
<path d="M17.4675 21.1717V18.0216L14.7582 16.5029V19.5924L17.4675 21.1717Z" fill="#DB1A5A"/>
<path d="M30.1389 21.7544L27.5915 20.2705L17.7574 25.9998L11.133 22.1032L8.58801 23.6107L17.7574 29.0044L30.1389 21.7544Z" fill="#DB1A5A"/>
<path d="M18.0444 9.86392L21.1484 11.6897L23.6881 10.1791L18.0444 6.85938V9.86392Z" fill="#DB1A5A"/>
<path d="M17.4672 6.85938L8.27191 12.2683V23.1153L10.8264 21.6022V13.7702L17.4672 9.86392V6.85938Z" fill="#DB1A5A"/>
</svg>
