<svg width="210" height="12" viewBox="0 0 210 12" fill="none" xmlns="http://www.w3.org/2000/svg">
<path d="M1.41477 9H0.306818L3.51136 0.272727H4.60227L7.80682 9H6.69886L4.09091 1.65341H4.02273L1.41477 9ZM1.82386 5.59091H6.28977V6.52841H1.82386V5.59091ZM10.2755 5.0625V9H9.26983V2.45455H10.2414V3.47727H10.3266C10.4801 3.14489 10.713 2.87784 11.0255 2.67614C11.338 2.47159 11.7414 2.36932 12.2357 2.36932C12.6789 2.36932 13.0667 2.46023 13.3991 2.64205C13.7315 2.82102 13.99 3.09375 14.1747 3.46023C14.3593 3.82386 14.4516 4.28409 14.4516 4.84091V9H13.446V4.90909C13.446 4.39489 13.3124 3.99432 13.0454 3.70739C12.7784 3.41761 12.4119 3.27273 11.946 3.27273C11.6249 3.27273 11.338 3.34233 11.0852 3.48153C10.8352 3.62074 10.6377 3.82386 10.4928 4.09091C10.348 4.35795 10.2755 4.68182 10.2755 5.0625ZM17.535 5.0625V9H16.5294V2.45455H17.501V3.47727H17.5862C17.7396 3.14489 17.9725 2.87784 18.285 2.67614C18.5975 2.47159 19.001 2.36932 19.4953 2.36932C19.9385 2.36932 20.3262 2.46023 20.6586 2.64205C20.991 2.82102 21.2495 3.09375 21.4342 3.46023C21.6188 3.82386 21.7112 4.28409 21.7112 4.84091V9H20.7055V4.90909C20.7055 4.39489 20.572 3.99432 20.3049 3.70739C20.0379 3.41761 19.6714 3.27273 19.2055 3.27273C18.8845 3.27273 18.5975 3.34233 18.3447 3.48153C18.0947 3.62074 17.8973 3.82386 17.7524 4.09091C17.6075 4.35795 17.535 4.68182 17.535 5.0625ZM26.448 9.13636C25.8571 9.13636 25.3386 8.99574 24.8926 8.71449C24.4494 8.43324 24.1028 8.03977 23.8528 7.53409C23.6057 7.02841 23.4821 6.4375 23.4821 5.76136C23.4821 5.07955 23.6057 4.48437 23.8528 3.97585C24.1028 3.46733 24.4494 3.07244 24.8926 2.79119C25.3386 2.50994 25.8571 2.36932 26.448 2.36932C27.0389 2.36932 27.5559 2.50994 27.9991 2.79119C28.4451 3.07244 28.7917 3.46733 29.0389 3.97585C29.2889 4.48437 29.4139 5.07955 29.4139 5.76136C29.4139 6.4375 29.2889 7.02841 29.0389 7.53409C28.7917 8.03977 28.4451 8.43324 27.9991 8.71449C27.5559 8.99574 27.0389 9.13636 26.448 9.13636ZM26.448 8.23295C26.8968 8.23295 27.2662 8.1179 27.5559 7.88778C27.8457 7.65767 28.0602 7.35511 28.1994 6.98011C28.3386 6.60511 28.4082 6.19886 28.4082 5.76136C28.4082 5.32386 28.3386 4.91619 28.1994 4.53835C28.0602 4.16051 27.8457 3.85511 27.5559 3.62216C27.2662 3.3892 26.8968 3.27273 26.448 3.27273C25.9991 3.27273 25.6298 3.3892 25.34 3.62216C25.0503 3.85511 24.8358 4.16051 24.6966 4.53835C24.5574 4.91619 24.4878 5.32386 24.4878 5.76136C24.4878 6.19886 24.5574 6.60511 24.6966 6.98011C24.8358 7.35511 25.0503 7.65767 25.34 7.88778C25.6298 8.1179 25.9991 8.23295 26.448 8.23295ZM35.314 6.32386V2.45455H36.3197V9H35.314V7.89205H35.2459C35.0925 8.22443 34.8538 8.5071 34.53 8.74006C34.2061 8.97017 33.797 9.08523 33.3027 9.08523C32.8936 9.08523 32.53 8.99574 32.2118 8.81676C31.8936 8.63494 31.6436 8.36222 31.4618 7.99858C31.28 7.6321 31.189 7.17045 31.189 6.61364V2.45455H32.1947V6.54545C32.1947 7.02273 32.3283 7.40341 32.5953 7.6875C32.8652 7.97159 33.2089 8.11364 33.6265 8.11364C33.8765 8.11364 34.1308 8.04972 34.3893 7.92188C34.6507 7.79403 34.8694 7.59801 35.0456 7.33381C35.2246 7.0696 35.314 6.73295 35.314 6.32386ZM39.4074 5.0625V9H38.4017V2.45455H39.3733V3.47727H39.4585C39.6119 3.14489 39.8449 2.87784 40.1574 2.67614C40.4699 2.47159 40.8733 2.36932 41.3676 2.36932C41.8108 2.36932 42.1986 2.46023 42.531 2.64205C42.8634 2.82102 43.1219 3.09375 43.3065 3.46023C43.4912 3.82386 43.5835 4.28409 43.5835 4.84091V9H42.5778V4.90909C42.5778 4.39489 42.4443 3.99432 42.1773 3.70739C41.9102 3.41761 41.5438 3.27273 41.0778 3.27273C40.7568 3.27273 40.4699 3.34233 40.217 3.48153C39.967 3.62074 39.7696 3.82386 39.6247 4.09091C39.4798 4.35795 39.4074 4.68182 39.4074 5.0625ZM48.3203 9.13636C47.7067 9.13636 47.1783 8.99148 46.7351 8.7017C46.2919 8.41193 45.951 8.01278 45.7124 7.50426C45.4737 6.99574 45.3544 6.41477 45.3544 5.76136C45.3544 5.09659 45.4766 4.50994 45.7209 4.00142C45.9681 3.49006 46.3118 3.09091 46.7521 2.80398C47.1953 2.5142 47.7124 2.36932 48.3033 2.36932C48.7635 2.36932 49.1783 2.45455 49.5476 2.625C49.9169 2.79545 50.2195 3.03409 50.4553 3.34091C50.6911 3.64773 50.8374 4.00568 50.8942 4.41477H49.8885C49.8118 4.11648 49.6413 3.85227 49.3771 3.62216C49.1158 3.3892 48.7635 3.27273 48.3203 3.27273C47.9283 3.27273 47.5845 3.375 47.2891 3.57955C46.9965 3.78125 46.7678 4.06676 46.603 4.43608C46.4411 4.80256 46.3601 5.23295 46.3601 5.72727C46.3601 6.23295 46.4396 6.6733 46.5987 7.0483C46.7607 7.4233 46.9879 7.71449 47.2806 7.92188C47.576 8.12926 47.9226 8.23295 48.3203 8.23295C48.5817 8.23295 48.8189 8.1875 49.032 8.09659C49.245 8.00568 49.4254 7.875 49.5732 7.70455C49.7209 7.53409 49.826 7.32955 49.8885 7.09091H50.8942C50.8374 7.47727 50.6967 7.82528 50.4723 8.13494C50.2507 8.44176 49.9567 8.68608 49.5902 8.8679C49.2266 9.04688 48.8033 9.13636 48.3203 9.13636ZM52.6044 9V2.45455H53.61V9H52.6044ZM53.1157 1.36364C52.9197 1.36364 52.7507 1.29687 52.6086 1.16335C52.4694 1.02983 52.3998 0.869318 52.3998 0.681818C52.3998 0.494318 52.4694 0.333807 52.6086 0.200284C52.7507 0.0667613 52.9197 0 53.1157 0C53.3117 0 53.4794 0.0667613 53.6186 0.200284C53.7606 0.333807 53.8316 0.494318 53.8316 0.681818C53.8316 0.869318 53.7606 1.02983 53.6186 1.16335C53.4794 1.29687 53.3117 1.36364 53.1157 1.36364ZM56.6977 5.0625V9H55.692V2.45455H56.6636V3.47727H56.7488C56.9022 3.14489 57.1352 2.87784 57.4477 2.67614C57.7602 2.47159 58.1636 2.36932 58.6579 2.36932C59.1011 2.36932 59.4889 2.46023 59.8213 2.64205C60.1537 2.82102 60.4122 3.09375 60.5968 3.46023C60.7815 3.82386 60.8738 4.28409 60.8738 4.84091V9H59.8682V4.90909C59.8682 4.39489 59.7346 3.99432 59.4676 3.70739C59.2005 3.41761 58.8341 3.27273 58.3682 3.27273C58.0471 3.27273 57.7602 3.34233 57.5074 3.48153C57.2574 3.62074 57.0599 3.82386 56.915 4.09091C56.7701 4.35795 56.6977 4.68182 56.6977 5.0625ZM65.5936 11.5909C65.1078 11.5909 64.6902 11.5284 64.3408 11.4034C63.9913 11.2812 63.7001 11.1193 63.4672 10.9176C63.2371 10.7188 63.0538 10.5057 62.9175 10.2784L63.7186 9.71591C63.8095 9.83523 63.9246 9.97159 64.0638 10.125C64.203 10.2812 64.3933 10.4162 64.6348 10.5298C64.8791 10.6463 65.1987 10.7045 65.5936 10.7045C66.122 10.7045 66.5581 10.5767 66.9018 10.321C67.2456 10.0653 67.4175 9.66477 67.4175 9.11932V7.78977H67.3322C67.2584 7.90909 67.1533 8.05682 67.0169 8.23295C66.8834 8.40625 66.6902 8.56108 66.4373 8.69744C66.1873 8.83097 65.8493 8.89773 65.4231 8.89773C64.8947 8.89773 64.4203 8.77273 63.9998 8.52273C63.5822 8.27273 63.2513 7.90909 63.0069 7.43182C62.7655 6.95455 62.6447 6.375 62.6447 5.69318C62.6447 5.02273 62.7626 4.43892 62.9984 3.94176C63.2342 3.44176 63.5623 3.0554 63.9828 2.78267C64.4033 2.5071 64.889 2.36932 65.4402 2.36932C65.8663 2.36932 66.2044 2.44034 66.4544 2.58239C66.7072 2.72159 66.9004 2.88068 67.0339 3.05966C67.1703 3.2358 67.2754 3.38068 67.3493 3.49432H67.4515V2.45455H68.4231V9.1875C68.4231 9.75 68.2953 10.2074 68.0396 10.5597C67.7868 10.9148 67.4459 11.1747 67.0169 11.3395C66.5908 11.5071 66.1163 11.5909 65.5936 11.5909ZM65.5595 7.99432C65.9629 7.99432 66.3038 7.90199 66.5822 7.71733C66.8606 7.53267 67.0723 7.26705 67.2172 6.92045C67.3621 6.57386 67.4345 6.15909 67.4345 5.67614C67.4345 5.20455 67.3635 4.78835 67.2214 4.42756C67.0794 4.06676 66.8692 3.78409 66.5908 3.57955C66.3123 3.375 65.9686 3.27273 65.5595 3.27273C65.1334 3.27273 64.7783 3.38068 64.4942 3.59659C64.2129 3.8125 64.0013 4.10227 63.8592 4.46591C63.72 4.82955 63.6504 5.23295 63.6504 5.67614C63.6504 6.13068 63.7214 6.53267 63.8635 6.8821C64.0084 7.22869 64.2214 7.50142 64.5027 7.70028C64.7868 7.89631 65.139 7.99432 65.5595 7.99432ZM76.0452 9.15341C75.6304 9.15341 75.254 9.07528 74.9159 8.91903C74.5779 8.75994 74.3094 8.53125 74.1105 8.23295C73.9117 7.93182 73.8122 7.56818 73.8122 7.14205C73.8122 6.76705 73.8861 6.46307 74.0338 6.23011C74.1815 5.99432 74.379 5.80966 74.6261 5.67614C74.8733 5.54261 75.146 5.44318 75.4443 5.37784C75.7455 5.30966 76.048 5.25568 76.352 5.21591C76.7497 5.16477 77.0722 5.12642 77.3193 5.10085C77.5693 5.07244 77.7512 5.02557 77.8648 4.96023C77.9813 4.89489 78.0395 4.78125 78.0395 4.61932V4.58523C78.0395 4.16477 77.9244 3.83807 77.6943 3.60511C77.4671 3.37216 77.1219 3.25568 76.6588 3.25568C76.1787 3.25568 75.8023 3.3608 75.5296 3.57102C75.2568 3.78125 75.0651 4.00568 74.9543 4.24432L73.9997 3.90341C74.1702 3.50568 74.3975 3.19602 74.6815 2.97443C74.9685 2.75 75.281 2.59375 75.619 2.50568C75.96 2.41477 76.2952 2.36932 76.6247 2.36932C76.835 2.36932 77.0764 2.39489 77.3492 2.44602C77.6247 2.49432 77.8904 2.59517 78.146 2.74858C78.4046 2.90199 78.619 3.13352 78.7895 3.44318C78.96 3.75284 79.0452 4.16761 79.0452 4.6875V9H78.0395V8.11364H77.9884C77.9202 8.25568 77.8065 8.40767 77.6475 8.5696C77.4884 8.73153 77.2767 8.86932 77.0125 8.98295C76.7483 9.09659 76.4259 9.15341 76.0452 9.15341ZM76.1986 8.25C76.5963 8.25 76.9315 8.17188 77.2043 8.01562C77.4798 7.85938 77.6872 7.65767 77.8264 7.41051C77.9685 7.16335 78.0395 6.90341 78.0395 6.63068V5.71023C77.9969 5.76136 77.9031 5.80824 77.7583 5.85085C77.6162 5.89062 77.4514 5.92614 77.2639 5.95739C77.0793 5.9858 76.8989 6.01136 76.7227 6.03409C76.5494 6.05398 76.4088 6.07102 76.3009 6.08523C76.0395 6.11932 75.7952 6.17472 75.5679 6.25142C75.3435 6.32528 75.1617 6.4375 75.0225 6.58807C74.8861 6.7358 74.8179 6.9375 74.8179 7.19318C74.8179 7.54261 74.9472 7.80682 75.2057 7.9858C75.4671 8.16193 75.798 8.25 76.1986 8.25ZM85.7571 3.92045L84.8537 4.17614C84.7969 4.02557 84.7131 3.87926 84.6023 3.73722C84.4943 3.59233 84.3466 3.47301 84.1591 3.37926C83.9716 3.28551 83.7316 3.23864 83.4389 3.23864C83.0384 3.23864 82.7046 3.33097 82.4375 3.51562C82.1733 3.69744 82.0412 3.92898 82.0412 4.21023C82.0412 4.46023 82.1321 4.65767 82.3139 4.80256C82.4958 4.94744 82.7799 5.06818 83.1662 5.16477L84.1378 5.40341C84.723 5.54545 85.1591 5.76278 85.446 6.0554C85.733 6.34517 85.8764 6.71875 85.8764 7.17614C85.8764 7.55114 85.7685 7.88636 85.5526 8.18182C85.3395 8.47727 85.0412 8.71023 84.6577 8.88068C84.2742 9.05114 83.8282 9.13636 83.3196 9.13636C82.652 9.13636 82.0995 8.99148 81.662 8.7017C81.2245 8.41193 80.9475 7.98864 80.831 7.43182L81.7855 7.19318C81.8764 7.54545 82.0483 7.80966 82.3012 7.9858C82.5568 8.16193 82.8907 8.25 83.3026 8.25C83.7713 8.25 84.1435 8.15057 84.4191 7.9517C84.6975 7.75 84.8367 7.50852 84.8367 7.22727C84.8367 7 84.7571 6.80966 84.598 6.65625C84.4389 6.5 84.1946 6.38352 83.8651 6.30682L82.7742 6.05114C82.1747 5.90909 81.7344 5.68892 81.4532 5.39062C81.1747 5.08949 81.0355 4.71307 81.0355 4.26136C81.0355 3.89205 81.1392 3.56534 81.3466 3.28125C81.5568 2.99716 81.8424 2.77415 82.2032 2.61222C82.5668 2.45028 82.9787 2.36932 83.4389 2.36932C84.0867 2.36932 84.5952 2.51136 84.9645 2.79545C85.3367 3.07955 85.6009 3.45455 85.7571 3.92045ZM88.278 11.4545C88.1076 11.4545 87.9556 11.4403 87.8221 11.4119C87.6885 11.3864 87.5962 11.3608 87.5451 11.3352L87.8008 10.4489C88.0451 10.5114 88.261 10.5341 88.4485 10.517C88.636 10.5 88.8022 10.4162 88.9471 10.2656C89.0948 10.1179 89.2297 9.87784 89.3519 9.54545L89.5394 9.03409L87.1189 2.45455H88.2098L90.0167 7.67045H90.0848L91.8917 2.45455H92.9826L90.2042 9.95455C90.0792 10.2926 89.9243 10.5724 89.7397 10.794C89.555 11.0185 89.3405 11.1847 89.0962 11.2926C88.8547 11.4006 88.582 11.4545 88.278 11.4545ZM95.5557 5.0625V9H94.55V2.45455H95.5216V3.47727H95.6068C95.7602 3.14489 95.9932 2.87784 96.3057 2.67614C96.6182 2.47159 97.0216 2.36932 97.5159 2.36932C97.9591 2.36932 98.3469 2.46023 98.6792 2.64205C99.0116 2.82102 99.2702 3.09375 99.4548 3.46023C99.6395 3.82386 99.7318 4.28409 99.7318 4.84091V9H98.7261V4.90909C98.7261 4.39489 98.5926 3.99432 98.3256 3.70739C98.0585 3.41761 97.692 3.27273 97.2261 3.27273C96.9051 3.27273 96.6182 3.34233 96.3653 3.48153C96.1153 3.62074 95.9179 3.82386 95.773 4.09091C95.6281 4.35795 95.5557 4.68182 95.5557 5.0625ZM104.469 9.13636C103.855 9.13636 103.327 8.99148 102.883 8.7017C102.44 8.41193 102.099 8.01278 101.861 7.50426C101.622 6.99574 101.503 6.41477 101.503 5.76136C101.503 5.09659 101.625 4.50994 101.869 4.00142C102.116 3.49006 102.46 3.09091 102.9 2.80398C103.344 2.5142 103.861 2.36932 104.452 2.36932C104.912 2.36932 105.327 2.45455 105.696 2.625C106.065 2.79545 106.368 3.03409 106.604 3.34091C106.839 3.64773 106.986 4.00568 107.042 4.41477H106.037C105.96 4.11648 105.79 3.85227 105.525 3.62216C105.264 3.3892 104.912 3.27273 104.469 3.27273C104.077 3.27273 103.733 3.375 103.437 3.57955C103.145 3.78125 102.916 4.06676 102.751 4.43608C102.589 4.80256 102.508 5.23295 102.508 5.72727C102.508 6.23295 102.588 6.6733 102.747 7.0483C102.909 7.4233 103.136 7.71449 103.429 7.92188C103.724 8.12926 104.071 8.23295 104.469 8.23295C104.73 8.23295 104.967 8.1875 105.18 8.09659C105.393 8.00568 105.574 7.875 105.721 7.70455C105.869 7.53409 105.974 7.32955 106.037 7.09091H107.042C106.986 7.47727 106.845 7.82528 106.621 8.13494C106.399 8.44176 106.105 8.68608 105.738 8.8679C105.375 9.04688 104.952 9.13636 104.469 9.13636ZM108.889 9V0.272727H109.895V3.49432H109.98C110.054 3.38068 110.156 3.2358 110.287 3.05966C110.42 2.88068 110.611 2.72159 110.858 2.58239C111.108 2.44034 111.446 2.36932 111.872 2.36932C112.423 2.36932 112.909 2.5071 113.329 2.78267C113.75 3.05824 114.078 3.44886 114.314 3.95455C114.55 4.46023 114.667 5.05682 114.667 5.74432C114.667 6.4375 114.55 7.03835 114.314 7.54688C114.078 8.05256 113.751 8.4446 113.334 8.72301C112.916 8.99858 112.434 9.13636 111.889 9.13636C111.469 9.13636 111.132 9.06676 110.879 8.92756C110.626 8.78551 110.432 8.625 110.295 8.44602C110.159 8.2642 110.054 8.11364 109.98 7.99432H109.861V9H108.889ZM109.878 5.72727C109.878 6.22159 109.95 6.65767 110.095 7.03551C110.24 7.41051 110.452 7.70455 110.73 7.91761C111.008 8.12784 111.349 8.23295 111.753 8.23295C112.173 8.23295 112.524 8.12216 112.805 7.90057C113.089 7.67614 113.302 7.375 113.444 6.99716C113.589 6.61648 113.662 6.19318 113.662 5.72727C113.662 5.26705 113.591 4.85227 113.449 4.48295C113.309 4.1108 113.098 3.81676 112.814 3.60085C112.532 3.3821 112.179 3.27273 111.753 3.27273C111.344 3.27273 111 3.37642 110.721 3.58381C110.443 3.78835 110.233 4.07528 110.091 4.4446C109.949 4.81108 109.878 5.23864 109.878 5.72727ZM118.372 9.15341C117.957 9.15341 117.581 9.07528 117.243 8.91903C116.905 8.75994 116.636 8.53125 116.437 8.23295C116.238 7.93182 116.139 7.56818 116.139 7.14205C116.139 6.76705 116.213 6.46307 116.361 6.23011C116.508 5.99432 116.706 5.80966 116.953 5.67614C117.2 5.54261 117.473 5.44318 117.771 5.37784C118.072 5.30966 118.375 5.25568 118.679 5.21591C119.076 5.16477 119.399 5.12642 119.646 5.10085C119.896 5.07244 120.078 5.02557 120.192 4.96023C120.308 4.89489 120.366 4.78125 120.366 4.61932V4.58523C120.366 4.16477 120.251 3.83807 120.021 3.60511C119.794 3.37216 119.449 3.25568 118.986 3.25568C118.505 3.25568 118.129 3.3608 117.856 3.57102C117.584 3.78125 117.392 4.00568 117.281 4.24432L116.326 3.90341C116.497 3.50568 116.724 3.19602 117.008 2.97443C117.295 2.75 117.608 2.59375 117.946 2.50568C118.287 2.41477 118.622 2.36932 118.951 2.36932C119.162 2.36932 119.403 2.39489 119.676 2.44602C119.951 2.49432 120.217 2.59517 120.473 2.74858C120.731 2.90199 120.946 3.13352 121.116 3.44318C121.287 3.75284 121.372 4.16761 121.372 4.6875V9H120.366V8.11364H120.315C120.247 8.25568 120.133 8.40767 119.974 8.5696C119.815 8.73153 119.603 8.86932 119.339 8.98295C119.075 9.09659 118.753 9.15341 118.372 9.15341ZM118.525 8.25C118.923 8.25 119.258 8.17188 119.531 8.01562C119.807 7.85938 120.014 7.65767 120.153 7.41051C120.295 7.16335 120.366 6.90341 120.366 6.63068V5.71023C120.324 5.76136 120.23 5.80824 120.085 5.85085C119.943 5.89062 119.778 5.92614 119.591 5.95739C119.406 5.9858 119.226 6.01136 119.049 6.03409C118.876 6.05398 118.736 6.07102 118.628 6.08523C118.366 6.11932 118.122 6.17472 117.895 6.25142C117.67 6.32528 117.488 6.4375 117.349 6.58807C117.213 6.7358 117.145 6.9375 117.145 7.19318C117.145 7.54261 117.274 7.80682 117.532 7.9858C117.794 8.16193 118.125 8.25 118.525 8.25ZM128.084 3.92045L127.18 4.17614C127.124 4.02557 127.04 3.87926 126.929 3.73722C126.821 3.59233 126.673 3.47301 126.486 3.37926C126.298 3.28551 126.058 3.23864 125.766 3.23864C125.365 3.23864 125.031 3.33097 124.764 3.51562C124.5 3.69744 124.368 3.92898 124.368 4.21023C124.368 4.46023 124.459 4.65767 124.641 4.80256C124.822 4.94744 125.107 5.06818 125.493 5.16477L126.465 5.40341C127.05 5.54545 127.486 5.76278 127.773 6.0554C128.06 6.34517 128.203 6.71875 128.203 7.17614C128.203 7.55114 128.095 7.88636 127.879 8.18182C127.666 8.47727 127.368 8.71023 126.984 8.88068C126.601 9.05114 126.155 9.13636 125.646 9.13636C124.979 9.13636 124.426 8.99148 123.989 8.7017C123.551 8.41193 123.274 7.98864 123.158 7.43182L124.112 7.19318C124.203 7.54545 124.375 7.80966 124.628 7.9858C124.884 8.16193 125.217 8.25 125.629 8.25C126.098 8.25 126.47 8.15057 126.746 7.9517C127.024 7.75 127.163 7.50852 127.163 7.22727C127.163 7 127.084 6.80966 126.925 6.65625C126.766 6.5 126.521 6.38352 126.192 6.30682L125.101 6.05114C124.501 5.90909 124.061 5.68892 123.78 5.39062C123.501 5.08949 123.362 4.71307 123.362 4.26136C123.362 3.89205 123.466 3.56534 123.673 3.28125C123.884 2.99716 124.169 2.77415 124.53 2.61222C124.894 2.45028 125.305 2.36932 125.766 2.36932C126.413 2.36932 126.922 2.51136 127.291 2.79545C127.663 3.07955 127.928 3.45455 128.084 3.92045ZM132.701 9.13636C132.071 9.13636 131.527 8.99716 131.069 8.71875C130.615 8.4375 130.264 8.04545 130.017 7.54261C129.772 7.03693 129.65 6.44886 129.65 5.77841C129.65 5.10795 129.772 4.51705 130.017 4.00568C130.264 3.49148 130.608 3.09091 131.048 2.80398C131.491 2.5142 132.008 2.36932 132.599 2.36932C132.94 2.36932 133.277 2.42614 133.609 2.53977C133.941 2.65341 134.244 2.83807 134.517 3.09375C134.789 3.34659 135.007 3.68182 135.169 4.09943C135.331 4.51705 135.412 5.03125 135.412 5.64205V6.06818H130.366V5.19886H134.389C134.389 4.82955 134.315 4.5 134.167 4.21023C134.022 3.92045 133.815 3.69176 133.545 3.52415C133.278 3.35653 132.963 3.27273 132.599 3.27273C132.198 3.27273 131.852 3.37216 131.559 3.57102C131.27 3.76705 131.047 4.02273 130.89 4.33807C130.734 4.65341 130.656 4.99148 130.656 5.35227V5.93182C130.656 6.42614 130.741 6.84517 130.912 7.18892C131.085 7.52983 131.325 7.78977 131.632 7.96875C131.939 8.14489 132.295 8.23295 132.701 8.23295C132.966 8.23295 133.204 8.19602 133.417 8.12216C133.633 8.04545 133.819 7.93182 133.975 7.78125C134.132 7.62784 134.252 7.4375 134.338 7.21023L135.309 7.48295C135.207 7.8125 135.035 8.10227 134.794 8.35227C134.552 8.59943 134.254 8.79261 133.899 8.93182C133.544 9.06818 133.145 9.13636 132.701 9.13636ZM140.796 11.4545V2.45455H141.768V3.49432H141.887C141.961 3.38068 142.063 3.2358 142.194 3.05966C142.328 2.88068 142.518 2.72159 142.765 2.58239C143.015 2.44034 143.353 2.36932 143.779 2.36932C144.33 2.36932 144.816 2.5071 145.237 2.78267C145.657 3.05824 145.985 3.44886 146.221 3.95455C146.457 4.46023 146.575 5.05682 146.575 5.74432C146.575 6.4375 146.457 7.03835 146.221 7.54688C145.985 8.05256 145.659 8.4446 145.241 8.72301C144.823 8.99858 144.342 9.13636 143.796 9.13636C143.376 9.13636 143.039 9.06676 142.786 8.92756C142.534 8.78551 142.339 8.625 142.203 8.44602C142.066 8.2642 141.961 8.11364 141.887 7.99432H141.802V11.4545H140.796ZM141.785 5.72727C141.785 6.22159 141.857 6.65767 142.002 7.03551C142.147 7.41051 142.359 7.70455 142.637 7.91761C142.916 8.12784 143.257 8.23295 143.66 8.23295C144.08 8.23295 144.431 8.12216 144.713 7.90057C144.997 7.67614 145.21 7.375 145.352 6.99716C145.497 6.61648 145.569 6.19318 145.569 5.72727C145.569 5.26705 145.498 4.85227 145.356 4.48295C145.217 4.1108 145.005 3.81676 144.721 3.60085C144.44 3.3821 144.086 3.27273 143.66 3.27273C143.251 3.27273 142.907 3.37642 142.629 3.58381C142.35 3.78835 142.14 4.07528 141.998 4.4446C141.856 4.81108 141.785 5.23864 141.785 5.72727ZM148.349 9V2.45455H149.32V3.44318H149.389C149.508 3.11932 149.724 2.85653 150.036 2.65483C150.349 2.45312 150.701 2.35227 151.093 2.35227C151.167 2.35227 151.259 2.35369 151.37 2.35653C151.481 2.35937 151.565 2.36364 151.622 2.36932V3.39205C151.588 3.38352 151.509 3.37074 151.387 3.35369C151.268 3.33381 151.142 3.32386 151.008 3.32386C150.69 3.32386 150.406 3.39062 150.156 3.52415C149.909 3.65483 149.713 3.83665 149.568 4.0696C149.426 4.29972 149.355 4.5625 149.355 4.85795V9H148.349ZM155.599 9.13636C154.968 9.13636 154.424 8.99716 153.967 8.71875C153.512 8.4375 153.161 8.04545 152.914 7.54261C152.67 7.03693 152.548 6.44886 152.548 5.77841C152.548 5.10795 152.67 4.51705 152.914 4.00568C153.161 3.49148 153.505 3.09091 153.945 2.80398C154.389 2.5142 154.906 2.36932 155.497 2.36932C155.837 2.36932 156.174 2.42614 156.507 2.53977C156.839 2.65341 157.141 2.83807 157.414 3.09375C157.687 3.34659 157.904 3.68182 158.066 4.09943C158.228 4.51705 158.309 5.03125 158.309 5.64205V6.06818H153.264V5.19886H157.286C157.286 4.82955 157.212 4.5 157.065 4.21023C156.92 3.92045 156.712 3.69176 156.443 3.52415C156.176 3.35653 155.86 3.27273 155.497 3.27273C155.096 3.27273 154.749 3.37216 154.457 3.57102C154.167 3.76705 153.944 4.02273 153.788 4.33807C153.632 4.65341 153.553 4.99148 153.553 5.35227V5.93182C153.553 6.42614 153.639 6.84517 153.809 7.18892C153.982 7.52983 154.222 7.78977 154.529 7.96875C154.836 8.14489 155.193 8.23295 155.599 8.23295C155.863 8.23295 156.102 8.19602 156.315 8.12216C156.531 8.04545 156.717 7.93182 156.873 7.78125C157.029 7.62784 157.15 7.4375 157.235 7.21023L158.207 7.48295C158.105 7.8125 157.933 8.10227 157.691 8.35227C157.45 8.59943 157.151 8.79261 156.796 8.93182C156.441 9.06818 156.042 9.13636 155.599 9.13636ZM160.079 9V2.45455H161.05V3.47727H161.136C161.272 3.12784 161.492 2.85653 161.796 2.66335C162.1 2.46733 162.465 2.36932 162.891 2.36932C163.323 2.36932 163.683 2.46733 163.97 2.66335C164.259 2.85653 164.485 3.12784 164.647 3.47727H164.715C164.883 3.1392 165.134 2.87074 165.47 2.67188C165.805 2.47017 166.207 2.36932 166.675 2.36932C167.261 2.36932 167.739 2.55256 168.112 2.91903C168.484 3.28267 168.67 3.84943 168.67 4.61932V9H167.664V4.61932C167.664 4.13636 167.532 3.79119 167.268 3.58381C167.004 3.37642 166.693 3.27273 166.335 3.27273C165.874 3.27273 165.518 3.41193 165.265 3.69034C165.012 3.96591 164.886 4.31534 164.886 4.73864V9H163.863V4.51705C163.863 4.14489 163.742 3.84517 163.501 3.6179C163.259 3.38778 162.948 3.27273 162.568 3.27273C162.306 3.27273 162.062 3.34233 161.835 3.48153C161.61 3.62074 161.428 3.81392 161.289 4.06108C161.153 4.3054 161.085 4.58807 161.085 4.90909V9H160.079ZM170.749 9V2.45455H171.754V9H170.749ZM171.26 1.36364C171.064 1.36364 170.895 1.29687 170.753 1.16335C170.614 1.02983 170.544 0.869318 170.544 0.681818C170.544 0.494318 170.614 0.333807 170.753 0.200284C170.895 0.0667613 171.064 0 171.26 0C171.456 0 171.624 0.0667613 171.763 0.200284C171.905 0.333807 171.976 0.494318 171.976 0.681818C171.976 0.869318 171.905 1.02983 171.763 1.16335C171.624 1.29687 171.456 1.36364 171.26 1.36364ZM177.961 6.32386V2.45455H178.967V9H177.961V7.89205H177.893C177.74 8.22443 177.501 8.5071 177.177 8.74006C176.853 8.97017 176.444 9.08523 175.95 9.08523C175.541 9.08523 175.177 8.99574 174.859 8.81676C174.541 8.63494 174.291 8.36222 174.109 7.99858C173.927 7.6321 173.836 7.17045 173.836 6.61364V2.45455H174.842V6.54545C174.842 7.02273 174.975 7.40341 175.242 7.6875C175.512 7.97159 175.856 8.11364 176.274 8.11364C176.524 8.11364 176.778 8.04972 177.037 7.92188C177.298 7.79403 177.517 7.59801 177.693 7.33381C177.872 7.0696 177.961 6.73295 177.961 6.32386ZM181.049 9V2.45455H182.02V3.47727H182.106C182.242 3.12784 182.462 2.85653 182.766 2.66335C183.07 2.46733 183.435 2.36932 183.861 2.36932C184.293 2.36932 184.653 2.46733 184.94 2.66335C185.229 2.85653 185.455 3.12784 185.617 3.47727H185.685C185.853 3.1392 186.104 2.87074 186.44 2.67188C186.775 2.47017 187.177 2.36932 187.645 2.36932C188.231 2.36932 188.709 2.55256 189.082 2.91903C189.454 3.28267 189.64 3.84943 189.64 4.61932V9H188.634V4.61932C188.634 4.13636 188.502 3.79119 188.238 3.58381C187.974 3.37642 187.663 3.27273 187.305 3.27273C186.844 3.27273 186.488 3.41193 186.235 3.69034C185.982 3.96591 185.856 4.31534 185.856 4.73864V9H184.833V4.51705C184.833 4.14489 184.712 3.84517 184.471 3.6179C184.229 3.38778 183.918 3.27273 183.538 3.27273C183.276 3.27273 183.032 3.34233 182.805 3.48153C182.58 3.62074 182.398 3.81392 182.259 4.06108C182.123 4.3054 182.055 4.58807 182.055 4.90909V9H181.049ZM205.501 9L204.845 8.34375L207.547 5.65057H195.913V4.71307H207.547L204.845 2.01136L205.501 1.36364L209.319 5.18182L205.501 9Z" fill="#DB1A5A"/>
</svg>
